<?xml version="1.0" encoding="UTF-8" standalone="no"?>
<!-- Created with Inkscape (http://www.inkscape.org/) -->

<svg
   xmlns:dc="http://purl.org/dc/elements/1.1/"
   xmlns:cc="http://creativecommons.org/ns#"
   xmlns:rdf="http://www.w3.org/1999/02/22-rdf-syntax-ns#"
   xmlns:svg="http://www.w3.org/2000/svg"
   xmlns="http://www.w3.org/2000/svg"
   xmlns:sodipodi="http://sodipodi.sourceforge.net/DTD/sodipodi-0.dtd"
   xmlns:inkscape="http://www.inkscape.org/namespaces/inkscape"
   width="256"
   height="256"
   id="svg2"
   version="1.1"
   inkscape:version="0.48.4 r9939"
   sodipodi:docname="bresa.svg">
  <defs
     id="defs4" />
  <sodipodi:namedview
     id="base"
     pagecolor="#ffffff"
     bordercolor="#666666"
     borderopacity="1.0"
     inkscape:pageopacity="0.0"
     inkscape:pageshadow="2"
     inkscape:zoom="0.70710678"
     inkscape:cx="128.78768"
     inkscape:cy="60.48834"
     inkscape:document-units="px"
     inkscape:current-layer="layer1"
     showgrid="false"
     inkscape:window-width="1551"
     inkscape:window-height="876"
     inkscape:window-x="49"
     inkscape:window-y="24"
     inkscape:window-maximized="1" />
  <metadata
     id="metadata7">
    <rdf:RDF>
      <cc:Work
         rdf:about="">
        <dc:format>image/svg+xml</dc:format>
        <dc:type
           rdf:resource="http://purl.org/dc/dcmitype/StillImage" />
        <dc:title></dc:title>
      </cc:Work>
    </rdf:RDF>
  </metadata>
  <g
     inkscape:label="Layer 1"
     inkscape:groupmode="layer"
     id="layer1"
     transform="translate(0,-796.3622)">
    <rect
       style="fill:#81cfff;fill-opacity:1;stroke:none"
       id="rect3836"
       width="256"
       height="256"
       x="0"
       y="796.36218" />
    <path
       style="fill:#32afff;fill-opacity:1;stroke:none"
       d="M 29.33059,191.21811 88.293553,256 l 167.355277,0 0,-146.51303 -44.94924,-44.949247 z"
       id="path3838"
       inkscape:connector-curvature="0"
       transform="translate(0,796.3622)"
       sodipodi:nodetypes="cccccc" />
    <path
       sodipodi:type="arc"
       style="fill:#ffffff;fill-opacity:1;stroke:none"
       id="path3852"
       sodipodi:cx="146.37111"
       sodipodi:cy="171.85429"
       sodipodi:rx="12.020815"
       sodipodi:ry="12.020815"
       d="m 158.39192,171.85429 a 12.020815,12.020815 0 1 1 -24.04163,0 12.020815,12.020815 0 1 1 24.04163,0 z"
       transform="translate(76.346717,771.93579)" />
    <path
       style="fill:#ffd885;stroke:none;stroke-width:10;stroke-linecap:butt;stroke-linejoin:round;stroke-miterlimit:4;stroke-opacity:1;stroke-dasharray:none;fill-opacity:1"
       d="M 91.3125 61.0625 C 77.968193 61.0625 51.28125 71.0625 51.28125 71.0625 L 51.28125 120.78125 L 211.40625 120.78125 L 211.40625 71.0625 C 211.40625 71.0625 184.71931 61.0625 171.375 61.0625 L 131.34375 61.0625 L 91.3125 61.0625 z M 51.28125 128.65625 L 51.28125 202.34375 L 211.40625 202.34375 L 211.40625 128.65625 L 51.28125 128.65625 z "
       transform="translate(0,796.3622)"
       id="path3766" />
    <path
       transform="translate(63.740115,754.37944)"
       d="m 158.39192,171.85429 a 12.020815,12.020815 0 1 1 -24.04163,0 12.020815,12.020815 0 1 1 24.04163,0 z"
       sodipodi:ry="12.020815"
       sodipodi:rx="12.020815"
       sodipodi:cy="171.85429"
       sodipodi:cx="146.37111"
       id="path3844"
       style="fill:#ffffff;fill-opacity:1;stroke:none"
       sodipodi:type="arc" />
    <path
       sodipodi:nodetypes="ccccc"
       inkscape:connector-curvature="0"
       id="path3785"
       d="m 79.459786,856.62494 -30.79067,10 0,132.07486 30.79067,0 z"
       style="fill:#f4e5c9;fill-opacity:1;stroke:none" />
    <path
       style="fill:#d4a136;fill-opacity:1;stroke:none"
       d="m 183.75076,856.62494 30.79067,10 0,132.07486 -30.79067,0 z"
       id="rect3771"
       inkscape:connector-curvature="0"
       sodipodi:nodetypes="ccccc" />
    <path
       style="fill:none;stroke:#d4a136;stroke-width:10;stroke-linecap:butt;stroke-linejoin:round;stroke-miterlimit:4;stroke-opacity:1;stroke-dasharray:none"
       d="m 51.270235,925.01239 160.131685,0 0,73.69821 -160.131685,0 z"
       id="rect2985"
       inkscape:connector-curvature="0"
       sodipodi:nodetypes="ccccc" />
    <path
       sodipodi:nodetypes="cssscccc"
       inkscape:connector-curvature="0"
       id="path3756"
       d="m 51.270235,867.43489 c 0,0 26.688614,-10 40.032921,-10 13.344304,0 26.688614,0 40.032924,0 13.3443,0 26.68861,0 40.03292,0 13.34431,0 40.03292,10 40.03292,10 l 0,49.69821 -160.131685,0 z"
       style="fill:none;stroke:#d4a136;stroke-width:10;stroke-linecap:butt;stroke-linejoin:round;stroke-miterlimit:4;stroke-opacity:1;stroke-dasharray:none" />
    <path
       sodipodi:nodetypes="ccccc"
       inkscape:connector-curvature="0"
       id="path3758"
       d="m 124.27024,925.01239 14.13168,0 0,19.69821 -14.13168,0 z"
       style="fill:none;stroke:#d4a136;stroke-width:10;stroke-linecap:butt;stroke-linejoin:round;stroke-miterlimit:4;stroke-opacity:1;stroke-dasharray:none" />
    <path
       sodipodi:type="arc"
       style="fill:#ffc800;fill-opacity:1;stroke:#ffc800;stroke-width:10;stroke-linecap:round;stroke-linejoin:round;stroke-miterlimit:4;stroke-opacity:1;stroke-dasharray:none"
       id="path3831"
       sodipodi:cx="58.293552"
       sodipodi:cy="197.70645"
       sodipodi:rx="21.772291"
       sodipodi:ry="21.772291"
       d="m 80.065844,197.70645 a 21.772291,21.772291 0 1 1 -43.544583,0 21.772291,21.772291 0 1 1 43.544583,0 z"
       transform="translate(-5.2072391,778.6117)" />
    <path
       sodipodi:type="arc"
       style="fill:#ffffff;fill-opacity:1;stroke:none"
       id="path3842"
       sodipodi:cx="146.37111"
       sodipodi:cy="171.85429"
       sodipodi:rx="12.020815"
       sodipodi:ry="12.020815"
       d="m 158.39192,171.85429 a 12.020815,12.020815 0 1 1 -24.04163,0 12.020815,12.020815 0 1 1 24.04163,0 z"
       transform="translate(35.355339,760.29975)" />
    <path
       sodipodi:type="arc"
       style="fill:#ffffff;fill-opacity:1;stroke:none"
       id="path3846"
       sodipodi:cx="146.37111"
       sodipodi:cy="171.85429"
       sodipodi:rx="12.020815"
       sodipodi:ry="12.020815"
       d="m 158.39192,171.85429 a 12.020815,12.020815 0 1 1 -24.04163,0 12.020815,12.020815 0 1 1 24.04163,0 z"
       transform="translate(45.355339,776.29975)" />
    <path
       sodipodi:type="arc"
       style="fill:#ffffff;fill-opacity:1;stroke:none"
       id="path3848"
       sodipodi:cx="146.37111"
       sodipodi:cy="171.85429"
       sodipodi:rx="12.020815"
       sodipodi:ry="12.020815"
       d="m 158.39192,171.85429 a 12.020815,12.020815 0 1 1 -24.04163,0 12.020815,12.020815 0 1 1 24.04163,0 z"
       transform="translate(59.497474,789.02767)" />
    <path
       sodipodi:type="arc"
       style="fill:#ffffff;fill-opacity:1;stroke:none"
       id="path3850"
       sodipodi:cx="146.37111"
       sodipodi:cy="171.85429"
       sodipodi:rx="12.020815"
       sodipodi:ry="12.020815"
       d="m 158.39192,171.85429 a 12.020815,12.020815 0 1 1 -24.04163,0 12.020815,12.020815 0 1 1 24.04163,0 z"
       transform="translate(76.589358,787.73478)" />
  </g>
</svg>
